<svg width="161" height="151" viewBox="0 0 161 151" fill="none" xmlns="http://www.w3.org/2000/svg">
<g id="Group 489">
<rect id="Rectangle 269" y="8.19458" width="160.682" height="89.8549" fill="#040404"/>
<rect id="Rectangle 271" x="74.3306" y="96.5698" width="12.2907" height="54.4302" fill="#040404"/>
<rect id="Rectangle 272" x="16.3884" y="1.17017" width="1.75581" height="8.77906" fill="#040404"/>
<rect id="Rectangle 274" x="140.465" y="1.17017" width="1.75581" height="8.77906" fill="#040404"/>
<rect id="Rectangle 276" x="99.4966" y="1.17017" width="1.75581" height="8.77906" fill="#040404"/>
<rect id="Rectangle 278" x="56.186" y="1.17017" width="1.75581" height="8.77906" fill="#040404"/>
<path id="Rectangle 273" d="M13.7283 0H22.8266L21.39 4.09689H12.2917L13.7283 0Z" fill="#040404"/>
<path id="Rectangle 281" d="M14.9967 1.375H20.5899L20.0814 2.90039H14.4883L14.9967 1.375Z" fill="#585858"/>
<path id="Rectangle 275" d="M137.806 0H146.904L145.467 4.09689H136.369L137.806 0Z" fill="#040404"/>
<path id="Rectangle 277" d="M96.8362 0H105.935L104.498 4.09689H95.3997L96.8362 0Z" fill="#040404"/>
<path id="Rectangle 279" d="M53.5257 0H62.624L61.1874 4.09689H52.0891L53.5257 0Z" fill="#040404"/>
<rect id="Rectangle 286" x="4.57617" y="11.4404" width="151.014" height="78.5578" fill="white"/>
<path id="Rectangle 272_2" d="M49.1624 151H111.201C111.201 149.384 109.891 148.073 108.275 148.073H52.0887C50.4725 148.073 49.1624 149.384 49.1624 151Z" fill="#040404"/>
<path id="Rectangle 282" d="M54.6569 1.375H60.25L59.7416 2.90039H54.1484L54.6569 1.375Z" fill="#585858"/>
<path id="Rectangle 283" d="M98.1308 1.375H103.724L103.215 2.90039H97.6223L98.1308 1.375Z" fill="#585858"/>
<path id="Rectangle 284" d="M139.316 1.375H144.909L144.401 2.90039H138.808L139.316 1.375Z" fill="#585858"/>
</g>
</svg>
