<svg width="127" height="125" viewBox="0 0 127 125" fill="none" xmlns="http://www.w3.org/2000/svg">
<g id="Group 496">
<g id="Group 493">
<path id="Rectangle 332" d="M7.51996 5.30504C7.87264 2.28068 10.4347 0 13.4796 0H112.982C116.026 0 118.589 2.28068 118.941 5.30504L125.68 63.0973C126.096 66.6622 123.31 69.7923 119.721 69.7923H6.74032C3.15122 69.7923 0.364996 66.6622 0.780711 63.0973L7.51996 5.30504Z" fill="black"/>
<path id="Rectangle 333" d="M10.7253 11.5848C11.102 8.5554 11.2903 7.04071 12.0111 5.90395C12.6195 4.94431 13.488 4.17717 14.5154 3.69179C15.7324 3.11682 17.2587 3.11682 20.3114 3.11682H106.439C109.491 3.11682 111.018 3.11682 112.235 3.69179C113.262 4.17717 114.131 4.94431 114.739 5.90395C115.46 7.04071 115.648 8.5554 116.025 11.5848L121.245 53.5617C121.716 57.352 121.952 59.2471 121.344 60.7121C120.833 61.9442 119.926 62.971 118.766 63.6301C117.388 64.4137 115.478 64.4137 111.658 64.4137H15.0916C11.2721 64.4137 9.36238 64.4137 7.98358 63.6301C6.82391 62.971 5.91694 61.9442 5.40598 60.7121C4.79847 59.2471 5.03413 57.352 5.50545 53.5617L10.7253 11.5848Z" fill="white"/>
<path id="Rectangle 334" d="M0.59668 64.4136H125.865V66.7648C125.865 70.0785 123.179 72.7648 119.865 72.7648H6.59668C3.28298 72.7648 0.59668 70.0785 0.59668 66.7648V64.4136Z" fill="black"/>
<rect id="Rectangle 335" x="54.283" y="70.9861" width="17.8955" height="48.9142" fill="black"/>
<path id="Rectangle 336" d="M25.6506 124.671C25.6506 122.035 27.7872 119.899 30.4228 119.899H96.0394C98.675 119.899 100.812 122.035 100.812 124.671H25.6506Z" fill="black"/>
</g>
<g id="Group 494">
<path id="Vector 160" d="M74.7809 39.6203L66.3066 44.8142C65.8966 44.4039 64.7485 43.4193 63.4364 42.7632C61.7962 41.9431 60.4294 41.8064 58.9259 40.9863C57.4224 40.1662 56.0555 39.0728 56.0555 37.1592C56.0555 35.6284 57.4224 34.2847 58.1058 33.8041L53.3218 25.9513C53.1851 25.5413 53.0485 24.5846 54.2786 24.0379C55.3957 23.5413 56.1921 24.2657 56.4655 24.7213L58.5157 28.0022C59.1535 27.5921 60.0192 26.6353 61.1127 26.772C61.6552 26.8398 61.9783 27.1365 62.0694 27.3188C62.4339 26.9998 63.0263 26.2248 63.983 26.2253C64.6481 26.2257 65.1676 26.6353 65.3498 26.9087C65.6687 26.6354 66.3066 25.6781 67.4 25.6787C68.2314 25.6792 69.5869 28.0023 70.8171 30.0525C71.8012 31.6927 73.8696 37.1144 74.7809 39.6203Z" fill="white"/>
<path id="Vector 157" d="M65.2709 26.8846C65.5899 26.6113 66.2278 25.654 67.3212 25.6546C68.1526 25.6551 69.5081 27.9782 70.7382 30.0284C71.7223 31.6686 73.7908 37.0903 74.702 39.5962L66.2277 44.7901C65.8177 44.3798 64.6697 43.3952 63.3575 42.7391C61.7173 41.919 60.3505 41.7824 58.847 40.9623C57.3435 40.1422 55.9767 39.0487 55.9767 37.1352C55.9767 35.6043 57.3435 34.2606 58.0269 33.7801M65.2709 26.8846L67.5945 30.5751M65.2709 26.8846C65.0887 26.6113 64.5692 26.2016 63.9041 26.2012C62.9474 26.2007 62.355 26.9758 61.9906 27.2947M61.9906 27.2947L64.4508 31.3951M61.9906 27.2947C61.8994 27.1124 61.5763 26.8158 61.0338 26.748C59.9403 26.6113 59.0747 27.568 58.4368 27.9781M61.5805 33.1715L56.3866 24.6972C56.1132 24.2416 55.3168 23.5173 54.1997 24.0138C52.9696 24.5605 53.1062 25.5172 53.2429 25.9272L58.0269 33.7801M60.4872 37.8186L58.0269 33.7801" stroke="black" stroke-width="1.5" stroke-linecap="round"/>
<path id="Vector 158" d="M57.0688 21.6919C57.3878 21.783 58.1623 22.0199 58.709 22.7853C59.2558 23.5507 59.2102 24.5166 59.1191 24.8356M57.8889 19.7783C58.3445 19.8694 59.6166 20.301 60.4859 21.6919C61.1693 22.7853 61.2604 24.4255 61.0326 24.9722" stroke="black" stroke-width="1.5" stroke-linecap="round"/>
<path id="Vector 159" d="M52.5366 29.4799C52.2177 29.3888 51.4432 29.1518 50.8964 28.3864C50.3497 27.621 50.3953 26.6551 50.4864 26.3362M51.7165 31.3934C51.2609 31.3023 49.9889 30.8708 49.1196 29.4799C48.4362 28.3864 48.345 26.7462 48.5728 26.1995" stroke="black" stroke-width="1.5" stroke-linecap="round"/>
</g>
</g>
</svg>
